<?xml version="1.0" encoding="UTF-8" standalone="no"?>
<svg
   viewBox="0 0 1584.1854 500"
   fill="currentColor"
   alt="Spacelift logo"
   class="Footer_logo__Gk619"
   width="1584.1854"
   height="500"
   version="1.1"
   id="svg21"
   sodipodi:docname="SpaceliftLogo.svg"
   inkscape:version="1.1.1 (3bf5ae0d25, 2021-09-20)"
   xmlns:inkscape="http://www.inkscape.org/namespaces/inkscape"
   xmlns:sodipodi="http://sodipodi.sourceforge.net/DTD/sodipodi-0.dtd"
   xmlns="http://www.w3.org/2000/svg"
   xmlns:svg="http://www.w3.org/2000/svg">
  <sodipodi:namedview
     id="namedview23"
     pagecolor="#ffffff"
     bordercolor="#666666"
     borderopacity="1.0"
     inkscape:pageshadow="2"
     inkscape:pageopacity="0.0"
     inkscape:pagecheckerboard="0"
     showgrid="false"
     fit-margin-top="0"
     fit-margin-left="0"
     fit-margin-right="0"
     fit-margin-bottom="0"
     inkscape:zoom="0.44170174"
     inkscape:cx="1375.3625"
     inkscape:cy="250.16881"
     inkscape:window-width="1440"
     inkscape:window-height="829"
     inkscape:window-x="-8"
     inkscape:window-y="-8"
     inkscape:window-maximized="1"
     inkscape:current-layer="svg21" />
  <g
     id="g176"
     transform="matrix(9.4338811,0,0,9.4338811,0,0.00430076)"
     style="stroke-width:0.106001">
    <path
       d="m 159.284,24.832 c -0.596,4.453 -2.41,7.11 -4.979,7.288 a 5.679,5.679 0 0 1 -2.513,-0.561 5.61,5.61 0 0 1 -1.995,-1.61 16.616,16.616 0 0 0 4.697,-4.972 16.386,16.386 0 0 0 2.272,-6.416 125.86,125.86 0 0 1 -31.614,5.044 16.541,16.541 0 0 0 5.473,6.347 24.741,24.741 0 0 0 -6.21,16.887 h 4.331 a 20.704,20.704 0 0 1 4.503,-13.324 123.155,123.155 0 0 0 -1.22,13.324 h 7.688 c 0,0 -1.41,-5.754 0.886,-5.759 2.295,0.005 0.885,5.76 0.885,5.76 h 7.689 a 120.955,120.955 0 0 0 -1.118,-12.592 c 0.855,0.68 1.816,1.22 2.845,1.6 a 9.019,9.019 0 0 0 3.706,0.537 8.368,8.368 0 0 0 3.247,-0.922 8.273,8.273 0 0 0 2.605,-2.125 c 1.617,-1.907 2.665,-4.58 3.115,-7.947 l -4.293,-0.56 z"
       fill="#131417"
       id="path2"
       style="stroke-width:0.0112362" />
    <path
       d="m 141.347,23.485 c 15.272,-2.453 27.161,-7.42 26.556,-11.093 -0.606,-3.674 -13.477,-4.664 -28.749,-2.212 -15.272,2.452 -27.161,7.419 -26.556,11.092 0.606,3.674 13.477,4.665 28.749,2.213 z"
       fill="url(#logo-saturn-head_svg__a)"
       id="path4"
       style="fill:url(#logo-saturn-head_svg__a);stroke-width:0.0112362" />
    <path
       d="M 7.77,37.783 C 4.453,37.341 4.183,36.737 4.183,36.051 c 0,-0.583 0.353,-1.562 2.713,-1.562 2.7,0 3.28,1.093 3.481,1.915 l 0.037,0.148 h 3.504 l -0.02,-0.212 c -0.1,-1.049 -0.885,-4.469 -6.833,-4.469 -4.731,0 -6.41,2.402 -6.41,4.46 0,2.503 1.916,3.87 6.217,4.43 3.676,0.442 3.98,1.202 3.98,2.01 0,1.184 -1.084,1.785 -3.222,1.785 -2.24,0 -3.6,-0.769 -4.048,-2.285 L 3.541,42.131 H 0 l 0.036,0.224 c 0.499,3.098 3.195,4.875 7.397,4.875 4.414,0 6.947,-1.717 6.947,-4.71 0,-1.991 -0.8,-3.943 -6.61,-4.737 z M 26.1,31.871 c -2.778,0 -4.338,1.135 -5.204,2.266 -0.008,-0.684 -0.033,-1.375 -0.081,-1.709 l -0.024,-0.166 h -3.479 l 0.005,0.198 c 0.028,1.169 0.028,2.366 0.028,3.536 V 53 h 3.556 v -7.698 a 5.756,5.756 0 0 0 2.131,1.508 5.826,5.826 0 0 0 2.587,0.42 c 4.219,0 7.4,-3.404 7.4,-7.916 0,-4.243 -2.975,-7.443 -6.919,-7.443 z m 3.278,7.582 c 0,2.225 -1.125,4.824 -4.294,4.824 -2.672,0 -4.267,-1.741 -4.267,-4.657 0,-3.048 1.576,-4.796 4.323,-4.796 2.928,0 4.238,2.325 4.238,4.629 z m 19.936,3.567 v -5.993 c 0,-3.42 -2.28,-5.156 -6.777,-5.156 -5.698,0 -6.617,3.302 -6.748,4.72 l -0.02,0.212 h 3.537 l 0.033,-0.153 c 0.223,-1.019 0.673,-2.105 3.227,-2.105 2.88,0 3.248,1.371 3.248,2.566 v 0.503 H 42.65 c -5.168,0 -7.681,1.587 -7.681,4.85 0,2.372 1.78,4.766 5.76,4.766 2.458,0 4.194,-0.648 5.175,-1.926 0.013,0.465 0.06,0.928 0.142,1.385 l 0.036,0.15 h 3.363 l -0.018,-0.21 A 62.81,62.81 0 0 1 49.314,43.021 Z M 38.468,42.296 c 0,-1.544 1.268,-2.203 4.239,-2.203 1.68,0 2.633,0 3.108,0.017 v 0.318 c 0,2.684 -1.474,4.044 -4.38,4.044 -1.885,0 -2.967,-0.793 -2.967,-2.176 z M 64.05,42.047 a 3.759,3.759 0 0 1 -1.538,1.802 c -0.695,0.422 -1.51,0.61 -2.323,0.539 -2.592,0 -4.267,-1.904 -4.267,-4.852 0,-2.93 1.675,-4.824 4.267,-4.824 a 3.712,3.712 0 0 1 2.325,0.573 3.634,3.634 0 0 1 1.474,1.866 l 0.047,0.126 h 3.5 L 67.5,37.053 c -0.3,-1.925 -2.172,-5.182 -7.283,-5.182 a 7.704,7.704 0 0 0 -3.054,0.504 7.625,7.625 0 0 0 -2.597,1.663 7.507,7.507 0 0 0 -1.713,2.545 7.428,7.428 0 0 0 -0.543,3.009 c 0,4.64 3.093,7.637 7.88,7.637 3.784,0 6.537,-1.889 7.363,-5.052 l 0.063,-0.242 H 64.103 Z M 77.245,31.871 c -4.573,0 -7.767,3.175 -7.767,7.721 0,3.802 2.42,7.637 7.824,7.637 5.01,0 6.796,-2.893 7.415,-4.617 l 0.094,-0.259 h -3.559 l -0.055,0.1 c -0.765,1.358 -1.93,1.963 -3.782,1.963 a 4.231,4.231 0 0 1 -3.002,-1.08 4.122,4.122 0 0 1 -1.362,-2.853 h 11.876 v -0.974 c 0,-3.523 -2.013,-7.638 -7.682,-7.638 z m -0.028,2.73 c 3.146,0 3.9,2.043 4.05,3.404 h -8.15 c 0.317,-2.167 1.8,-3.404 4.1,-3.404 z m 14.176,-9.058 h -3.557 v 21.296 h 3.557 z m 5.819,0.056 c -0.357,0 -0.706,0.104 -1.003,0.3 a 1.787,1.787 0 0 0 -0.665,0.8 1.762,1.762 0 0 0 0.391,1.942 1.827,1.827 0 0 0 1.968,0.386 1.8,1.8 0 0 0 0.81,-0.656 1.766,1.766 0 0 0 -0.224,-2.25 1.82,1.82 0 0 0 -1.277,-0.522 z m 1.806,6.663 H 95.46 v 14.577 h 3.557 V 32.262 Z m 21.464,2.784 v -2.785 h -3.644 v -4.46 h -3.556 v 4.46 h -5.595 v -1.423 c 0,-2.01 0.502,-2.622 2.149,-2.622 0.383,-0.002 0.766,0.033 1.142,0.106 l 0.24,0.055 v -2.846 l -0.145,-0.038 a 7.542,7.542 0 0 0 -1.802,-0.173 c -3.362,0 -5.139,1.869 -5.139,5.406 v 1.535 h -2.628 v 2.785 h 2.628 v 11.792 h 3.555 V 35.046 h 5.595 v 7.585 c 0,3.088 1.227,4.347 4.235,4.347 a 7.83,7.83 0 0 0 2.435,-0.288 l 0.135,-0.045 v -2.609 l -0.238,0.05 a 7.251,7.251 0 0 1 -1.316,0.107 c -1.3,0 -1.695,-0.469 -1.695,-2.008 V 35.046 Z M 155.254,9.328 a 16.612,16.612 0 0 0 -8.408,-7.97 16.908,16.908 0 0 0 -11.641,-0.602 16.675,16.675 0 0 0 -9.206,7.06 16.312,16.312 0 0 0 -2.286,11.282 c 0.805,4.918 33.824,-0.111 32.98,-5.263 a 16.348,16.348 0 0 0 -1.439,-4.507 z"
       fill="#131417"
       id="path6"
       style="stroke-width:0.0112362" />
  </g>
  <defs
     id="defs19">
    <linearGradient
       id="logo-saturn-head_svg__a"
       x1="112.576"
       y1="16.832001"
       x2="167.925"
       y2="16.832001"
       gradientUnits="userSpaceOnUse">
      <stop
         offset="0.082"
         stop-color="#82FFE8"
         id="stop8" />
      <stop
         offset="0.951"
         stop-color="#7C47FC"
         id="stop10" />
    </linearGradient>
    <linearGradient
       id="linearGradient17"
       x1="112.576"
       y1="16.832001"
       x2="167.925"
       y2="16.832001"
       gradientUnits="userSpaceOnUse">
      <stop
         offset="0.082"
         stop-color="#82FFE8"
         id="stop13" />
      <stop
         offset="0.951"
         stop-color="#7C47FC"
         id="stop15" />
    </linearGradient>
  </defs>
</svg>
