<?xml version="1.0" encoding="UTF-8" standalone="no"?>
<svg xmlns:inkscape="http://www.inkscape.org/namespaces/inkscape" xmlns:sodipodi="http://sodipodi.sourceforge.net/DTD/sodipodi-0.dtd" xmlns="http://www.w3.org/2000/svg" xmlns:svg="http://www.w3.org/2000/svg" id="Layer_1" data-name="Layer 1" viewBox="0 0 1548.0065 499.99998" version="1.1" sodipodi:docname="EDB_Logo_Logo with P2P.svg" inkscape:version="1.1.1 (3bf5ae0d25, 2021-09-20)" width="1548.0066" height="500">
  <defs id="defs4">
    <style id="style2">.cls-1{fill:#ff3e00;}.cls-2{fill:#fff;}.cls-3{fill:#121646;}</style>
  </defs>
  <g id="g893" transform="matrix(1.3551444,0,0,1.3551444,28.958456,9.353455)" style="stroke-width:0.737929">
    <circle class="cls-1" cx="177.58" cy="177.58" r="177.58" id="circle6" style="stroke-width:0.737929"></circle>
    <path class="cls-2" d="M 284.14,168 A 35.5,35.5 0 0 0 295,142.91 c 0,-17.77 -14.59,-30.7 -32.6,-28.88 l -27.4,2.76 a 5.88,5.88 0 0 0 -5.23,5.68 v 102 a 4.62,4.62 0 0 0 5.23,4.63 l 27.38,-2.77 c 18,-1.82 32.6,-17.69 32.6,-35.46 v 0 A 28.6,28.6 0 0 0 284.14,168 Z" id="path8" style="stroke-width:0.737929"></path>
    <path class="cls-2" d="M 120.89,116.79 93.51,114 c -18,-1.82 -32.6,11.12 -32.6,28.9 A 35.53,35.53 0 0 0 71.78,168 28.66,28.66 0 0 0 60.91,190.9 v 0 c 0,17.79 14.59,33.68 32.6,35.5 l 27.38,2.76 a 4.61,4.61 0 0 0 5.23,-4.63 V 122.48 a 5.89,5.89 0 0 0 -5.23,-5.69 z" id="path10" style="stroke-width:0.737929"></path>
    <path class="cls-2" d="m 177.65,139.58 h -27.37 a 5.23,5.23 0 0 0 -5.22,5.24 v 78.47 c 0,3.06 2.1,6.13 5.13,6.13 h 27.47 c -0.29,5.71 -8.11,12.63 -26.45,14.67 l -2.08,0.18 c -1.23,0.14 -4.07,0 -4.07,5.37 v 1.43 a 5.34,5.34 0 0 0 5.15,5.43 h 27.37 c 18,0 32.69,-17.44 32.69,-35.49 v -48.74 a 32.65,32.65 0 0 0 -32.62,-32.69 z" id="path12" style="stroke-width:0.737929"></path>
    <path class="cls-3" d="m 1073.45,42.64 v 3.58 h -6.52 v 18 h -4 v -18 h -6.52 v -3.58 z m 22,21.62 -0.75,-12.72 c -0.08,-1.67 -0.08,-3.73 -0.15,-6 h -0.23 c -0.52,1.91 -1.12,4.45 -1.72,6.44 l -3.67,12 h -4.2 l -3.68,-12.32 c -0.37,-1.67 -1,-4.21 -1.42,-6.12 h -0.23 c 0,2 -0.07,4.06 -0.15,6 l -0.75,12.72 h -3.9 l 1.5,-21.62 h 6.08 l 3.52,10.57 c 0.45,1.67 0.83,3.26 1.35,5.49 h 0.08 c 0.52,-2 1,-3.82 1.42,-5.41 l 3.53,-10.65 h 5.92 l 1.58,21.62 z" id="path14" style="stroke-width:0.737929"></path>
    <path class="cls-3" d="m 470.34,171.89 v 50.2 h 120.51 c 2.09,0 4.88,3 4.88,5.17 V 259 c 0,2.21 -2.79,5.16 -4.88,5.16 h -163.7 a 4.63,4.63 0 0 1 -4.18,-4.43 V 47.12 a 4.64,4.64 0 0 1 4.18,-4.43 h 163.7 c 2.09,0 4.88,3 4.88,5.17 V 79.6 c 0,2.22 -2.79,5.17 -4.88,5.17 H 470.34 v 45 h 110.07 c 2.08,0 4.87,2.95 4.87,5.17 v 31.74 c 0,2.22 -2.79,5.17 -4.87,5.17 z" id="path16" style="stroke-width:0.737929"></path>
    <path class="cls-3" d="m 630.39,264.17 a 4.63,4.63 0 0 1 -4.18,-4.43 V 47.12 a 4.64,4.64 0 0 1 4.18,-4.43 h 88.12 c 66.17,0 115.63,43.19 115.63,110.74 0,66.82 -41.79,110.74 -114.94,110.74 z m 43.19,-179.4 v 137.32 h 45.62 c 44.24,0 67.57,-26.58 67.57,-68.66 0,-42.08 -28.56,-68.66 -68.26,-68.66 z" id="path18" style="stroke-width:0.737929"></path>
    <path class="cls-3" d="m 869,264.17 a 4.63,4.63 0 0 1 -4.18,-4.43 V 47.12 A 4.64,4.64 0 0 1 869,42.69 h 106.87 c 47.38,0 72.45,26.58 72.45,60.91 0,17.72 -6.62,31.74 -18.11,41.71 v 0.74 c 16.37,11.07 26.12,28.79 26.12,51.68 0,42.45 -29.25,66.44 -79.41,66.44 z m 43.19,-179.4 v 45 h 60.6 c 20.9,0 28.21,-10.34 28.21,-22.15 0,-12.55 -9.4,-22.89 -31.69,-22.89 z M 972,222.09 c 26.47,0 36.92,-8.86 36.92,-26.58 0,-16.24 -11.84,-27.31 -38,-27.31 h -58.78 v 53.89 z" id="path20" style="stroke-width:0.737929"></path>
    <path class="cls-3" d="m 433.57,329.85 v 14.93 H 423 v -44 h 17.55 a 20.45,20.45 0 0 1 8.93,1.86 14,14 0 0 1 6,5.29 14.43,14.43 0 0 1 2.13,7.78 A 12.71,12.71 0 0 1 453,326 q -4.61,3.86 -12.64,3.85 z m 0,-8.18 h 6.95 a 6.59,6.59 0 0 0 4.7,-1.54 5.76,5.76 0 0 0 1.62,-4.35 7.08,7.08 0 0 0 -1.67,-4.93 5.92,5.92 0 0 0 -4.53,-1.87 h -7.07 z" id="path22" style="stroke-width:0.737929"></path>
    <path class="cls-3" d="m 500.48,323.69 a 25.81,25.81 0 0 1 -2.39,11.39 17.63,17.63 0 0 1 -6.78,7.63 18.88,18.88 0 0 1 -10,2.67 19.16,19.16 0 0 1 -10,-2.58 17.61,17.61 0 0 1 -6.78,-7.39 25.06,25.06 0 0 1 -2.55,-11 v -2.48 a 26,26 0 0 1 2.37,-11.4 17.49,17.49 0 0 1 6.8,-7.63 20.1,20.1 0 0 1 20,0 17.88,17.88 0 0 1 6.81,7.56 25.37,25.37 0 0 1 2.46,11.26 z m -10.78,-1.84 q 0,-6.56 -2.19,-10 a 7,7 0 0 0 -6.27,-3.39 q -8,0 -8.43,12 v 3.23 q 0,6.46 2.15,9.94 a 7,7 0 0 0 6.37,3.47 6.91,6.91 0 0 0 6.19,-3.41 q 2.17,-3.4 2.21,-9.82 z" id="path24" style="stroke-width:0.737929"></path>
    <path class="cls-3" d="m 540,328.37 5,-27.58 h 10.52 l -9.34,44 h -11 l -5.9,-25.08 -5.77,25.08 h -11 l -9.37,-44 h 10.66 l 5.05,27.58 6,-27.58 h 9 z" id="path26" style="stroke-width:0.737929"></path>
    <path class="cls-3" d="m 587,326.11 h -16.68 v 10.51 H 590 v 8.16 h -30.3 v -44 h 30.36 V 309 h -19.74 v 9.27 H 587 Z" id="path28" style="stroke-width:0.737929"></path>
    <path class="cls-3" d="m 610.68,329.22 h -5.74 v 15.56 h -10.6 v -44 h 17.31 q 7.82,0 12.23,3.47 4.41,3.47 4.41,9.81 a 14.24,14.24 0 0 1 -1.86,7.6 13,13 0 0 1 -5.81,4.89 l 9.18,17.76 v 0.46 h -11.36 z m -5.74,-8.16 h 6.71 a 6,6 0 0 0 4.54,-1.59 6.14,6.14 0 0 0 1.53,-4.44 6.24,6.24 0 0 0 -1.54,-4.46 6,6 0 0 0 -4.53,-1.62 h -6.71 z" id="path30" style="stroke-width:0.737929"></path>
    <path class="cls-3" d="m 682.82,309 h -13.2 v 35.8 H 659 V 309 h -13 v -8.19 h 36.76 z" id="path32" style="stroke-width:0.737929"></path>
    <path class="cls-3" d="m 723.69,323.69 a 25.81,25.81 0 0 1 -2.39,11.39 17.69,17.69 0 0 1 -6.78,7.63 18.9,18.9 0 0 1 -10,2.67 19.16,19.16 0 0 1 -10,-2.58 17.61,17.61 0 0 1 -6.78,-7.39 25.06,25.06 0 0 1 -2.55,-11 v -2.48 a 26.18,26.18 0 0 1 2.36,-11.4 17.61,17.61 0 0 1 6.8,-7.63 19,19 0 0 1 10.08,-2.69 18.85,18.85 0 0 1 10,2.66 17.88,17.88 0 0 1 6.81,7.56 25.37,25.37 0 0 1 2.46,11.26 z m -10.79,-1.84 q 0,-6.56 -2.19,-10 a 7,7 0 0 0 -6.26,-3.39 q -8,0 -8.43,12 v 3.23 q 0,6.46 2.14,9.94 a 7,7 0 0 0 6.38,3.47 6.91,6.91 0 0 0 6.19,-3.41 c 1.45,-2.27 2.19,-5.55 2.2,-9.82 z" id="path34" style="stroke-width:0.737929"></path>
    <path class="cls-3" d="m 755.17,329.85 v 14.93 h -10.6 v -44 h 17.54 a 20.42,20.42 0 0 1 8.93,1.86 13.92,13.92 0 0 1 6,5.29 14.43,14.43 0 0 1 2.13,7.78 12.68,12.68 0 0 1 -4.6,10.29 q -4.59,3.86 -12.64,3.85 z m 0,-8.18 h 6.94 a 6.61,6.61 0 0 0 4.71,-1.54 5.76,5.76 0 0 0 1.61,-4.35 7.07,7.07 0 0 0 -1.66,-4.93 5.92,5.92 0 0 0 -4.53,-1.87 h -7.07 z" id="path36" style="stroke-width:0.737929"></path>
    <path class="cls-3" d="m 822.08,323.69 a 25.81,25.81 0 0 1 -2.39,11.39 17.63,17.63 0 0 1 -6.78,7.63 18.9,18.9 0 0 1 -10,2.67 19.16,19.16 0 0 1 -10,-2.58 17.61,17.61 0 0 1 -6.78,-7.39 25.06,25.06 0 0 1 -2.55,-11 v -2.48 a 26,26 0 0 1 2.37,-11.4 17.49,17.49 0 0 1 6.8,-7.63 20.1,20.1 0 0 1 20,0 17.88,17.88 0 0 1 6.81,7.56 25.37,25.37 0 0 1 2.46,11.26 z m -10.78,-1.84 q 0,-6.56 -2.19,-10 a 7,7 0 0 0 -6.27,-3.39 q -8,0 -8.43,12 v 3.23 q 0,6.46 2.15,9.94 a 7,7 0 0 0 6.37,3.47 6.91,6.91 0 0 0 6.19,-3.41 q 2.17,-3.4 2.21,-9.82 z" id="path38" style="stroke-width:0.737929"></path>
    <path class="cls-3" d="m 850.23,333.09 a 4.38,4.38 0 0 0 -1.64,-3.63 20.8,20.8 0 0 0 -5.79,-2.69 53.5,53.5 0 0 1 -6.76,-2.69 q -8.55,-4.2 -8.55,-11.53 a 10.44,10.44 0 0 1 2.12,-6.46 13.78,13.78 0 0 1 6,-4.34 23.41,23.41 0 0 1 8.76,-1.56 20.49,20.49 0 0 1 8.51,1.69 13.54,13.54 0 0 1 5.84,4.82 12.56,12.56 0 0 1 2.09,7.14 h -10.54 a 5.29,5.29 0 0 0 -1.65,-4.16 6.43,6.43 0 0 0 -4.46,-1.49 7.23,7.23 0 0 0 -4.49,1.26 3.69,3.69 0 0 0 0.17,6.25 22.8,22.8 0 0 0 6.38,2.84 39.29,39.29 0 0 1 7.49,3.16 q 7.13,4.11 7.13,11.33 a 10.75,10.75 0 0 1 -4.35,9.06 q -4.35,3.29 -11.94,3.29 a 23.66,23.66 0 0 1 -9.68,-1.92 14.61,14.61 0 0 1 -6.52,-5.25 13.71,13.71 0 0 1 -2.19,-7.69 h 10.63 c 0,2.36 0.61,4.09 1.83,5.21 1.22,1.12 3.19,1.68 5.93,1.68 a 6.8,6.8 0 0 0 4.16,-1.14 3.74,3.74 0 0 0 1.52,-3.18 z" id="path40" style="stroke-width:0.737929"></path>
    <path class="cls-3" d="m 900.8,309 h -13.2 v 35.8 H 877 V 309 h -13 v -8.19 h 36.8 z" id="path42" style="stroke-width:0.737929"></path>
    <path class="cls-3" d="m 940.43,339.34 a 17.06,17.06 0 0 1 -7.15,4.38 30.83,30.83 0 0 1 -10.28,1.66 q -8.66,0 -13.81,-5.29 -5.15,-5.29 -5.53,-14.71 v -3.8 a 26.28,26.28 0 0 1 2.3,-11.35 17.09,17.09 0 0 1 6.57,-7.46 18.61,18.61 0 0 1 9.89,-2.61 q 8.22,0 12.76,3.76 c 3,2.5 4.8,6.25 5.31,11.22 H 930.2 c -0.37,-2.46 -1.15,-4.21 -2.36,-5.25 a 7.6,7.6 0 0 0 -5.14,-1.57 6.9,6.9 0 0 0 -6.16,3.38 c -1.45,2.25 -2.18,5.48 -2.2,9.66 V 324 q 0,6.59 2.25,9.9 2.25,3.31 7.08,3.3 4.14,0 6.16,-1.84 v -6.83 h -7.37 v -7.28 h 18 z" id="path44" style="stroke-width:0.737929"></path>
    <path class="cls-3" d="m 962.94,329.22 h -5.74 v 15.56 h -10.6 v -44 h 17.31 q 7.82,0 12.23,3.47 4.41,3.47 4.41,9.81 a 14.24,14.24 0 0 1 -1.86,7.6 13,13 0 0 1 -5.81,4.89 l 9.18,17.76 v 0.46 H 970.7 Z m -5.74,-8.16 h 6.71 a 6,6 0 0 0 4.54,-1.59 6.14,6.14 0 0 0 1.55,-4.47 6.24,6.24 0 0 0 -1.54,-4.46 6,6 0 0 0 -4.53,-1.62 h -6.73 z" id="path46" style="stroke-width:0.737929"></path>
    <path class="cls-3" d="m 1014.23,326.11 h -16.67 v 10.51 h 19.7 v 8.16 H 987 v -44 h 30.35 V 309 h -19.79 v 9.27 h 16.67 z" id="path48" style="stroke-width:0.737929"></path>
    <path class="cls-3" d="m 1044.26,333.09 a 4.36,4.36 0 0 0 -1.65,-3.63 20.56,20.56 0 0 0 -5.78,-2.69 53.72,53.72 0 0 1 -6.77,-2.69 q -8.55,-4.2 -8.54,-11.53 a 10.38,10.38 0 0 1 2.12,-6.46 13.73,13.73 0 0 1 6,-4.34 23.41,23.41 0 0 1 8.76,-1.56 20.44,20.44 0 0 1 8.5,1.69 13.51,13.51 0 0 1 5.85,4.82 12.55,12.55 0 0 1 2.08,7.14 h -10.57 a 5.29,5.29 0 0 0 -1.65,-4.16 6.38,6.38 0 0 0 -4.45,-1.49 7.23,7.23 0 0 0 -4.49,1.26 3.69,3.69 0 0 0 0.17,6.25 22.84,22.84 0 0 0 6.37,2.84 39.41,39.41 0 0 1 7.5,3.16 q 7.13,4.11 7.12,11.33 a 10.72,10.72 0 0 1 -4.35,9.06 q -4.35,3.29 -11.93,3.29 a 23.66,23.66 0 0 1 -9.68,-1.92 14.64,14.64 0 0 1 -6.53,-5.25 13.71,13.71 0 0 1 -2.19,-7.69 h 10.64 c 0,2.36 0.61,4.09 1.82,5.21 1.21,1.12 3.2,1.68 5.94,1.68 a 6.8,6.8 0 0 0 4.16,-1.14 3.74,3.74 0 0 0 1.55,-3.18 z" id="path50" style="stroke-width:0.737929"></path>
  </g>
</svg>
