<?xml version="1.0" encoding="UTF-8" standalone="no"?>
<svg
   viewBox="0 0 2026.181 500"
   fill="currentColor"
   class="css-y05oq2 etcq2ec11"
   version="1.1"
   id="svg4"
   sodipodi:docname="Upbound_logo.svg"
   width="2026.181"
   height="500"
   inkscape:version="1.1.1 (3bf5ae0d25, 2021-09-20)"
   xmlns:inkscape="http://www.inkscape.org/namespaces/inkscape"
   xmlns:sodipodi="http://sodipodi.sourceforge.net/DTD/sodipodi-0.dtd"
   xmlns="http://www.w3.org/2000/svg"
   xmlns:svg="http://www.w3.org/2000/svg">
  <defs
     id="defs8" />
  <sodipodi:namedview
     id="namedview6"
     pagecolor="#ffffff"
     bordercolor="#666666"
     borderopacity="1.0"
     inkscape:pageshadow="2"
     inkscape:pageopacity="0.0"
     inkscape:pagecheckerboard="0"
     showgrid="false"
     fit-margin-top="0"
     fit-margin-left="0"
     fit-margin-right="0"
     fit-margin-bottom="0"
     showguides="true"
     inkscape:zoom="0.55918005"
     inkscape:cx="1013.0905"
     inkscape:cy="249.47242"
     inkscape:window-width="1920"
     inkscape:window-height="1001"
     inkscape:window-x="-7"
     inkscape:window-y="-7"
     inkscape:window-maximized="1"
     inkscape:current-layer="svg4" />
  <path
     d="m 260.45042,199.28797 -0.98004,97.28389 c 0,93.50374 -90.0436,112.4645 -121.38486,112.4645 -65.162602,0 -120.204804,-39.70159 -120.204804,-112.4645 V 193.78775 c 0,-22.76091 13.140526,-36.40145 34.361375,-36.40145 21.740869,0 34.881395,13.64054 34.881395,36.40145 v 95.0038 c 0,36.90148 18.640744,57.08229 50.962034,57.08229 34.40138,0 53.14213,-17.18069 53.14213,-57.08229 v -89.50358 c 0,-22.74091 13.12052,-36.38145 34.86139,-36.38145 21.22085,0 34.36138,13.64054 34.36138,36.38145 m 1179.74718,-5.52022 -1,102.80411 c 0,93.52374 -90.0236,112.4645 -121.3449,112.4645 -65.2026,0 -120.2248,-39.68159 -120.2248,-112.4445 V 193.76775 c 0,-22.74091 13.1205,-36.40145 34.3814,-36.40145 21.7208,0 34.8614,13.66054 34.8614,36.40145 v 95.0038 c 0,36.88148 18.6407,57.10229 50.982,57.10229 34.3614,0 53.1021,-17.18069 53.1021,-57.10229 v -95.0038 c 0,-22.74091 13.1406,-36.40145 34.8814,-36.40145 21.2209,0 34.3614,13.66054 34.3614,36.40145 m -941.19764,87.92352 c 0,-38.40154 -24.76099,-64.18257 -60.14241,-64.18257 -35.88143,0 -61.64246,26.80107 -61.64246,64.20257 0,37.38149 25.76103,64.16257 61.64246,64.16257 35.38142,0 60.14241,-26.28106 60.14241,-64.18257 m 70.74283,0 c 0,77.32309 -46.50186,127.34509 -116.72467,127.34509 -31.84127,0 -57.6023,-11.10044 -74.80299,-30.32121 h -1.00004 v 84.40337 c 0,22.72091 -13.14053,36.88148 -34.8614,36.88148 -21.24085,0 -34.38137,-14.16057 -34.38137,-36.88148 V 193.76775 c 0,-22.76091 13.14052,-36.38145 34.40138,-36.38145 18.68074,0 31.32125,10.1004 34.34137,27.80111 h 1.00004 c 17.20069,-19.74079 42.96172,-30.86124 75.32301,-30.86124 70.22281,0 116.72467,50.022 116.72467,127.3451 m 224.68899,0.02 c 0,-38.40154 -24.78099,-64.18257 -60.12241,-64.18257 -35.88143,0 -61.66246,26.80107 -61.66246,64.20257 0,37.38149 25.78103,64.16257 61.66246,64.16257 35.34142,0 60.12241,-26.28106 60.12241,-64.18257 m 70.74283,0 c 0,77.32309 -46.50186,127.34509 -116.72467,127.34509 -32.3413,0 -58.12233,-11.10044 -75.30301,-31.32125 h -1.00004 c -3.04013,17.68071 -15.68063,28.28113 -33.86136,28.28113 -21.74087,0 -34.86139,-14.14057 -34.86139,-36.86147 V 83.103327 c 0,-22.76091 13.12052,-36.901476 34.86139,-36.901476 21.22085,0 34.36138,14.140566 34.36138,36.901476 V 185.16741 h 1.00004 c 16.68066,-19.72079 42.46169,-30.80123 74.80299,-30.80123 70.22281,0 116.72467,50.002 116.72467,127.32509 m 165.42659,64.18257 c 36.4015,0 61.1425,-26.28106 61.1425,-64.20257 0,-38.38154 -24.761,-64.16257 -61.1425,-64.16257 -35.88141,0 -60.6424,25.80103 -60.6424,64.18257 0,37.90151 24.76099,64.18257 60.6424,64.18257 m 0,-191.52767 c 78.3232,0 131.9053,51.54207 131.9053,127.3451 0,75.30301 -53.5821,127.34509 -131.9053,127.34509 -77.80309,0 -131.36523,-52.04208 -131.36523,-127.34509 0,-75.80303 53.54214,-127.3451 131.36523,-127.3451 m 699.908,112.18449 v 102.60411 c 0,22.7209 -13.1205,36.86147 -34.8414,36.86147 -21.2408,0 -34.3613,-14.14057 -34.3613,-36.88148 v -94.50378 c 0,-37.40149 -17.2007,-57.10228 -50.5421,-57.10228 -34.8814,0 -55.1022,23.76095 -55.1022,63.68255 v 87.92351 c 0,22.74091 -13.1205,36.88148 -34.8414,36.88148 -21.2408,0 -34.3613,-14.14057 -34.3613,-36.88148 V 194.26777 c 0,-22.74091 13.1205,-36.88147 34.3613,-36.88147 18.1608,0 30.8013,10.1004 34.3614,27.28109 h 1 c 16.6807,-19.72079 40.9417,-30.32122 72.783,-30.32122 66.2026,0 101.544,39.40158 101.544,112.18449 m 226.4291,15.16061 c 0,-37.4015 -25.7811,-64.18257 -61.6625,-64.18257 -35.3814,0 -60.1224,25.78103 -60.1224,64.20257 0,37.88151 24.741,64.16257 60.1224,64.16257 35.8814,0 61.6625,-26.80108 61.6625,-64.18257 M 2026.181,83.083326 V 369.13477 c 0,22.7209 -13.1405,36.86147 -34.8613,36.86147 -18.2008,0 -30.8413,-10.60042 -33.8614,-28.28113 h -1 c -17.2007,20.20081 -42.9618,31.32125 -75.3031,31.32125 -70.2628,0 -116.7446,-50.002 -116.7446,-127.34509 0,-77.32309 46.4818,-127.3451 116.7446,-127.3451 32.3413,0 58.1224,11.12045 74.763,30.82124 h 1.0401 V 83.103327 c 0,-22.76091 13.1205,-36.901476 34.3614,-36.901476 21.7208,0 34.8613,14.140566 34.8613,36.901476 M 104.8642,52.4221 A 52.4321,52.4321 0 1 1 9.5361429e-7,52.4421 52.4321,52.4321 0 0 1 104.8642,52.4221"
     id="path2"
     style="stroke-width:1;fill:#6553c0;fill-opacity:1" />
</svg>
