<?xml version="1.0" encoding="UTF-8" standalone="no"?>
<svg
   width="3194.1313"
   height="500"
   viewBox="0 0 3194.1313 500"
   fill="none"
   version="1.1"
   id="svg37"
   sodipodi:docname="FireHydrant.svg"
   inkscape:version="1.1.1 (3bf5ae0d25, 2021-09-20)"
   xmlns:inkscape="http://www.inkscape.org/namespaces/inkscape"
   xmlns:sodipodi="http://sodipodi.sourceforge.net/DTD/sodipodi-0.dtd"
   xmlns="http://www.w3.org/2000/svg"
   xmlns:svg="http://www.w3.org/2000/svg">
  <sodipodi:namedview
     id="namedview39"
     pagecolor="#ffffff"
     bordercolor="#666666"
     borderopacity="1.0"
     inkscape:pageshadow="2"
     inkscape:pageopacity="0.0"
     inkscape:pagecheckerboard="0"
     showgrid="false"
     fit-margin-top="0"
     fit-margin-left="0"
     fit-margin-right="0"
     fit-margin-bottom="0"
     inkscape:zoom="0.35471303"
     inkscape:cx="1597.0657"
     inkscape:cy="249.49746"
     inkscape:window-width="1920"
     inkscape:window-height="1001"
     inkscape:window-x="-7"
     inkscape:window-y="-7"
     inkscape:window-maximized="1"
     inkscape:current-layer="svg37" />
  <g
     clip-path="url(#clip0)"
     id="g30"
     transform="matrix(16.131976,0,0,16.131976,-8.065988,-8.065988)"
     style="stroke-width:0.0619887">
    <path
       d="M 17.3223,21.6991 15.1677,14.5786 10.4442,19.452 8.62109,13.3061 21.0237,0.5 C 6.57701,0.5 1.52204,7.21441 2.90318,12.8188 L 5.63784,23.3507 C 7.07422,28.3052 1.90876,30.8773 0.5,31.4729 3.23465,31.5541 5.36161,31.4188 7.26758,30.8231 10.9138,29.8214 13.317,27.3576 17.3223,21.6991 Z"
       fill="#ff5300"
       id="path2"
       style="stroke-width:0.0038426" />
    <g
       opacity="0.8"
       id="g6"
       style="stroke-width:0.0038426">
      <path
         opacity="0.8"
         d="M 31.0234,8.64933 C 29.587,3.69475 34.7524,1.1227 36.1612,0.527064 33.4266,0.445841 31.2996,0.581212 29.3936,1.17685 25.7198,2.17859 23.3166,4.64235 19.3113,10.3009 l 2.1546,7.1205 4.7235,-4.8734 1.8231,6.1459 -12.4026,12.779 c 14.4467,0 19.5016,-6.7144 18.1205,-12.3188 z"
         fill="#ff5300"
         id="path4"
         style="stroke-width:0.000238198" />
    </g>
    <path
       d="m 48.5911,9.976 v 6.0917 h 8.9498 v 2.1389 h -8.9498 v 7.0663 H 46.0498 V 7.81006 h 12.596 V 9.976 Z"
       fill="#220e6d"
       id="path8"
       style="stroke-width:0.0038426" />
    <path
       d="m 61.0767,9.05547 c 0,-0.86637 0.7182,-1.5703 1.6573,-1.5703 0.9392,0 1.6574,0.67685 1.6574,1.51616 0,0.89345 -0.6906,1.59737 -1.6574,1.59737 -0.9391,0 -1.6573,-0.67685 -1.6573,-1.54323 z m 0.4143,3.00523 h 2.4584 V 25.3 H 61.491 Z"
       fill="#220e6d"
       id="path10"
       style="stroke-width:0.0038426" />
    <path
       d="m 75.7443,11.9254 v 2.3283 c -0.1934,-0.027 -0.3867,-0.027 -0.5525,-0.027 -2.6241,0 -4.2539,1.5703 -4.2539,4.4672 V 25.3 H 68.4795 V 12.0607 h 2.3479 v 2.2201 c 0.884,-1.5703 2.5413,-2.3554 4.9169,-2.3554 z"
       fill="#220e6d"
       id="path12"
       style="stroke-width:0.0038426" />
    <path
       d="M 90.329,19.4791 H 79.3627 c 0.3039,2.3283 2.2098,3.8716 4.8892,3.8716 1.5745,0 2.9004,-0.5144 3.8948,-1.5974 l 1.3536,1.5432 c -1.2154,1.4079 -3.0938,2.1389 -5.3312,2.1389 -4.3644,0 -7.2648,-2.8157 -7.2648,-6.7686 0,-3.9257 2.8728,-6.7414 6.7676,-6.7414 3.8948,0 6.6847,2.7615 6.6847,6.8227 0.0276,0.1895 0,0.4873 -0.0276,0.731 z M 79.3627,17.7463 h 8.6736 c -0.2486,-2.2201 -1.9613,-3.7904 -4.3368,-3.7904 -2.3479,0 -4.0606,1.5433 -4.3368,3.7904 z"
       fill="#220e6d"
       id="path14"
       style="stroke-width:0.0038426" />
    <path
       d="M 109.803,7.81006 V 25.3 h -4.115 V 18.1253 H 97.5941 V 25.3 H 93.4507 V 7.81006 h 4.1434 V 14.714 h 8.0939 V 7.81006 Z"
       fill="#220e6d"
       id="path16"
       style="stroke-width:0.0038426" />
    <path
       d="m 127.261,11.8441 -6.187,14.2681 c -1.326,3.2489 -3.205,4.2236 -5.691,4.2236 -1.409,0 -2.928,-0.4603 -3.812,-1.2184 l 1.464,-2.7616 c 0.608,0.5145 1.464,0.8393 2.238,0.8393 1.105,0 1.712,-0.4873 2.237,-1.6786 l 0.055,-0.1353 -5.938,-13.5371 h 4.115 l 3.812,9.124 3.867,-9.124 z"
       fill="#220e6d"
       id="path18"
       style="stroke-width:0.0038426" />
    <path
       d="M 142.343,6.75415 V 25.3 h -3.812 v -1.5432 c -0.995,1.1642 -2.459,1.7598 -4.282,1.7598 -3.867,0 -6.85,-2.7074 -6.85,-6.931 0,-4.2236 2.983,-6.931 6.85,-6.931 1.685,0 3.122,0.5144 4.116,1.6244 V 6.75415 Z m -3.895,11.80435 c 0,-2.3284 -1.519,-3.7362 -3.48,-3.7362 -1.989,0 -3.509,1.4078 -3.509,3.7362 0,2.3284 1.52,3.7363 3.509,3.7363 1.933,0 3.48,-1.4079 3.48,-3.7363 z"
       fill="#220e6d"
       id="path20"
       style="stroke-width:0.0038426" />
    <path
       d="m 154.414,11.6546 v 3.6009 c -0.331,-0.0271 -0.58,-0.0542 -0.884,-0.0542 -2.182,0 -3.646,1.1642 -3.646,3.7363 v 6.3353 h -3.978 V 11.8441 h 3.812 v 1.7869 c 0.939,-1.2995 2.569,-1.9764 4.696,-1.9764 z"
       fill="#220e6d"
       id="path22"
       style="stroke-width:0.0038426" />
    <path
       d="m 168.695,17.6109 v 7.662 h -3.729 v -1.6786 c -0.746,1.2183 -2.155,1.8681 -4.171,1.8681 -3.204,0 -5.11,-1.7598 -5.11,-4.0611 0,-2.3826 1.712,-4.0341 5.883,-4.0341 h 3.149 c 0,-1.6786 -1.022,-2.6533 -3.149,-2.6533 -1.464,0 -2.955,0.4874 -3.95,1.2455 l -1.436,-2.7345 c 1.491,-1.0559 3.729,-1.6245 5.911,-1.6245 4.199,0.0542 6.602,1.9493 6.602,6.0105 z m -3.978,3.4384 v -1.3808 h -2.734 c -1.851,0 -2.459,0.6769 -2.459,1.5703 0,0.9747 0.829,1.6245 2.238,1.6245 1.353,0 2.513,-0.5956 2.955,-1.814 z"
       fill="#220e6d"
       id="path24"
       style="stroke-width:0.0038426" />
    <path
       d="m 186.208,17.5838 v 7.6891 h -3.978 v -7.0664 c 0,-2.1659 -1.022,-3.1676 -2.79,-3.1676 -1.906,0 -3.287,1.1371 -3.287,3.6279 V 25.3 h -3.978 V 11.8441 h 3.812 v 1.5703 c 1.078,-1.1371 2.68,-1.7869 4.53,-1.7869 3.232,0.0271 5.691,1.8681 5.691,5.9563 z"
       fill="#220e6d"
       id="path26"
       style="stroke-width:0.0038426" />
    <path
       d="m 198.5,24.6502 c -0.829,0.5686 -2.016,0.8393 -3.232,0.8393 -3.232,0 -5.138,-1.6244 -5.138,-4.8192 v -5.5231 h -2.127 v -3.0053 h 2.127 V 8.86597 h 4.006 v 3.27593 h 3.425 v 3.0053 h -3.425 v 5.469 c 0,1.1371 0.635,1.7869 1.712,1.7869 0.58,0 1.16,-0.1625 1.602,-0.4874 z"
       fill="#220e6d"
       id="path28"
       style="stroke-width:0.0038426" />
  </g>
  <defs
     id="defs35">
    <clipPath
       id="clip0">
      <rect
         width="198"
         height="31"
         fill="#ffffff"
         transform="translate(0.5,0.5)"
         id="rect32"
         x="0"
         y="0" />
    </clipPath>
  </defs>
</svg>
