<?xml version="1.0" encoding="UTF-8" standalone="no"?>
<!-- Created with Inkscape (http://www.inkscape.org/) -->

<svg
   version="1.1"
   id="svg2"
   xml:space="preserve"
   width="1889.7638"
   height="543.27289"
   viewBox="0 0 1889.7638 543.2729"
   sodipodi:docname="Atomist-logo-horiz.svg"
   inkscape:version="1.1.1 (3bf5ae0d25, 2021-09-20)"
   xmlns:inkscape="http://www.inkscape.org/namespaces/inkscape"
   xmlns:sodipodi="http://sodipodi.sourceforge.net/DTD/sodipodi-0.dtd"
   xmlns="http://www.w3.org/2000/svg"
   xmlns:svg="http://www.w3.org/2000/svg"><defs
     id="defs6" /><sodipodi:namedview
     id="namedview4"
     pagecolor="#ffffff"
     bordercolor="#666666"
     borderopacity="1.0"
     inkscape:pageshadow="2"
     inkscape:pageopacity="0.0"
     inkscape:pagecheckerboard="0"
     showgrid="false"
     inkscape:zoom="1.209449"
     inkscape:cx="414.65163"
     inkscape:cy="132.29165"
     inkscape:window-width="1920"
     inkscape:window-height="1010"
     inkscape:window-x="-6"
     inkscape:window-y="-6"
     inkscape:window-maximized="1"
     inkscape:current-layer="g8"
     fit-margin-top="0"
     fit-margin-left="0"
     fit-margin-right="0"
     fit-margin-bottom="0" /><g
     id="g8"
     inkscape:groupmode="layer"
     inkscape:label="ink_ext_XXXXXX"
     transform="matrix(1.3333333,0,0,-1.3333333,3.6485835e-5,263.84131)"><g
       id="g10"
       transform="matrix(0.20590895,0,0,0.20590895,2.8981328e-5,-209.5737)"><path
         d="m 830.441,103.25 c -66.535,0 -123.082,50.77 -137.121,120.141 l 198.153,217.89 c 19.84,21.821 32.968,48.891 37.816,77.981 l 36.746,220.429 293.345,-513.179 -7.56,-29.383 C 1229.89,140.238 1178.88,103.25 1122.37,103.25 H 830.441 m 26.11,1330.55 -105.524,68.44 c -15.879,10.3 -32.839,17.26 -50.113,21.11 l 121.43,355.67 c 20.484,60 72.957,99.79 131.597,99.79 57.489,0 109.179,-38.27 130.469,-96.6 l 60.25,-165.13 c -25.59,-7.54 -49.75,-22.01 -69.62,-43.79 L 856.551,1433.8"
         style="fill:#357d7d;fill-opacity:1;fill-rule:nonzero;stroke:none"
         id="path12" /><path
         d="m 1720.65,0 h -243 c -57.61,0 -110.37,32.2891 -136.58,83.6094 l -81.69,142.9026 159.59,619.777 c 14.3,37.121 14.67,78.883 1.02,116.289 l -275.33,754.502 c 14.19,4.19 28.81,6.24 43.39,6.24 55.38,0 110.12,-29.65 137.7,-85.23 l 532,-1072.18 c 14.8,-29.832 19.49,-63.672 13.36,-96.398 l 0.3,-344.352 C 1857.82,52.5898 1794.47,0 1720.65,0"
         style="fill:#203048;fill-opacity:1;fill-rule:nonzero;stroke:none"
         id="path14" /><path
         d="m 1259.38,226.512 -293.345,513.179 77.205,463.119 c 10.04,60.23 -16.6,120.68 -67.834,153.91 l -118.855,77.08 218.489,239.49 c 19.87,21.78 44.03,36.25 69.62,43.79 l 275.33,-754.502 c 13.65,-37.406 13.28,-79.168 -1.02,-116.289 L 1259.38,226.512"
         style="fill:#182730;fill-opacity:1;fill-rule:nonzero;stroke:none"
         id="path16" /><path
         d="M 422.328,0 H 153.539 C 43.8359,0 -30.3984,111.828 12.1914,212.93 L 526.219,1433.1 c 25.058,59.49 82.351,93.89 141.59,93.89 11.039,0 22.129,-1.19 33.105,-3.64 L 523.18,1002.76 c -7.489,-21.936 -10.282,-45.451 -8.16,-68.74 L 690.68,241.469 c 0.558,-6.149 1.445,-12.18 2.64,-18.078 L 535.805,50.1914 C 506.734,18.2188 465.535,0 422.328,0"
         style="fill:#bee257;fill-opacity:1;fill-rule:nonzero;stroke:none"
         id="path18" /><path
         d="m 693.32,223.391 c -1.195,5.898 -2.082,11.929 -2.64,18.078 L 515.02,934.02 c -2.122,23.289 0.671,46.804 8.16,68.74 l 177.734,520.59 c 17.274,-3.85 34.234,-10.81 50.113,-21.11 L 856.551,1433.8 755.094,1322.59 c -43.086,-47.22 -52.36,-116.22 -23.278,-173.14 L 966.035,739.691 929.289,519.262 c -4.848,-29.09 -17.976,-56.16 -37.816,-77.981 L 693.32,223.391"
         style="fill:#2c7b4e;fill-opacity:1;fill-rule:nonzero;stroke:none"
         id="path20" /><path
         d="M 966.035,739.691 731.816,1149.45 c -29.082,56.92 -19.808,125.92 23.278,173.14 l 101.457,111.21 118.855,-77.08 c 51.234,-33.23 77.874,-93.68 67.834,-153.91 L 966.035,739.691"
         style="fill:#192725;fill-opacity:1;fill-rule:nonzero;stroke:none"
         id="path22" /><path
         d="m 2483.13,1000.24 -66.52,-183.56 h 133.03 z m 152.2,-339.592 c -19.17,0 -37.09,11.512 -44.11,30.063 l -16.64,46.027 h -182.91 l -17.25,-46.027 c -7.04,-18.551 -24.95,-30.063 -44.76,-30.063 -28.8,0 -47.97,24.293 -47.97,48.614 0,5.738 0.63,11.488 3.19,17.258 l 124.7,320.39 c 10.89,28.77 39.66,47.97 69.72,47.97 32.6,2.56 65.22,-16.64 77.38,-47.97 l 124.06,-320.39 c 1.91,-5.77 3.2,-11.52 3.2,-17.258 0,-23.672 -19.19,-48.614 -48.61,-48.614"
         style="fill:#357d7d;fill-opacity:1;fill-rule:nonzero;stroke:none"
         id="path24" /><path
         d="m 3301.75,1011.11 h -88.9 V 706.051 c 0,-24.942 -20.46,-45.403 -46.05,-45.403 -24.94,0 -45.4,20.461 -45.4,45.403 v 305.059 h -88.9 c -21.73,0 -39.63,17.9 -39.63,40.92 0,21.11 17.9,39.02 39.63,39.02 h 269.25 c 21.11,0 39.01,-17.91 39.01,-40.31 0,-21.73 -17.9,-39.63 -39.01,-39.63"
         style="fill:#357d7d;fill-opacity:1;fill-rule:nonzero;stroke:none"
         id="path26" /><path
         d="m 3901.65,1017.5 c -78.65,0 -129.18,-60.129 -129.18,-140.051 0,-79.32 50.53,-140.07 129.18,-140.07 78.67,0 129.82,60.75 129.82,140.07 0,79.922 -51.15,140.051 -129.82,140.051 z m 0,-360.68 c -128.53,0 -222.55,92.078 -222.55,220.629 0,128.531 94.02,220.631 222.55,220.631 129.18,0 223.19,-92.1 223.19,-220.631 0,-128.551 -94.01,-220.629 -223.19,-220.629"
         style="fill:#357d7d;fill-opacity:1;fill-rule:nonzero;stroke:none"
         id="path28" /><path
         d="m 4924.93,660.648 c -24.94,0 -45.4,20.461 -45.4,45.403 v 257.09 L 4764.4,677.281 c -3.83,-9.601 -13.42,-16.633 -25.58,-16.633 -10.87,0 -20.47,7.032 -24.3,16.633 l -115.1,285.86 V 705.41 c 0,-24.301 -20.47,-44.762 -46.05,-44.762 -24.3,0 -44.76,20.461 -44.76,44.762 v 334.47 c 0,28.14 23.02,51.17 51.15,51.17 41.57,4.47 77.38,-4.48 92.73,-41.58 l 86.97,-216.15 86.98,216.15 c 10.23,24.94 33.9,41.58 62.04,41.58 40.93,6.39 82.49,-8.96 82.49,-51.17 V 706.051 c 0,-24.942 -20.47,-45.403 -46.04,-45.403"
         style="fill:#357d7d;fill-opacity:1;fill-rule:nonzero;stroke:none"
         id="path30" /><path
         d="m 5419.95,660.648 c -24.29,0 -44.76,20.461 -44.76,44.762 v 344.71 c 0,24.29 20.47,44.76 46.05,44.76 24.3,0 44.76,-20.47 44.76,-44.76 V 705.41 c 0,-24.301 -20.46,-44.762 -46.05,-44.762"
         style="fill:#357d7d;fill-opacity:1;fill-rule:nonzero;stroke:none"
         id="path32" /><path
         d="m 6021.77,656.82 c -62.04,0 -138.78,20.461 -162.45,55.621 -4.47,6.399 -7.01,14.079 -7.01,21.758 0,24.289 21.09,42.199 42.84,42.199 8.31,0 17.26,-1.918 24.3,-7.039 28.77,-19.82 65.22,-33.25 106.8,-33.25 49.88,0 74.17,23.032 74.17,47.321 0,75.468 -245.57,23.672 -245.57,184.179 0,71.001 61.39,129.831 161.8,129.831 48.61,0 122.79,-15.99 146.46,-47.32 5.12,-6.41 7.66,-14.07 7.66,-21.76 0,-24.29 -23.65,-40.926 -45.41,-40.926 -7.66,0 -15.34,1.918 -23,6.39 -29.42,16.636 -62.69,24.316 -94.02,24.316 -39.01,0 -60.75,-17.28 -60.75,-42.839 0,-67.813 244.93,-22.403 244.93,-181.641 0,-78.012 -55.64,-136.84 -170.75,-136.84"
         style="fill:#357d7d;fill-opacity:1;fill-rule:nonzero;stroke:none"
         id="path34" /><path
         d="m 6844.24,1011.11 h -88.89 V 706.051 c 0,-24.942 -20.47,-45.403 -46.05,-45.403 -24.95,0 -45.41,20.461 -45.41,45.403 V 1011.11 H 6575 c -21.74,0 -39.64,17.9 -39.64,40.92 0,21.11 17.9,39.02 39.64,39.02 h 269.24 c 21.11,0 39.01,-17.91 39.01,-40.31 0,-21.73 -17.9,-39.63 -39.01,-39.63"
         style="fill:#357d7d;fill-opacity:1;fill-rule:nonzero;stroke:none"
         id="path36" /></g></g></svg>
