<?xml version="1.0" encoding="UTF-8" standalone="no"?>
<!-- Created with Inkscape (http://www.inkscape.org/) -->

<svg
   version="1.1"
   id="svg824"
   xml:space="preserve"
   width="173.54668"
   height="38.853333"
   viewBox="0 0 173.54668 38.853333"
   sodipodi:docname="CoxEdge_RGB_NoSM.svg"
   inkscape:version="1.1.1 (3bf5ae0d25, 2021-09-20)"
   xmlns:inkscape="http://www.inkscape.org/namespaces/inkscape"
   xmlns:sodipodi="http://sodipodi.sourceforge.net/DTD/sodipodi-0.dtd"
   xmlns="http://www.w3.org/2000/svg"
   xmlns:svg="http://www.w3.org/2000/svg"><defs
     id="defs828" /><sodipodi:namedview
     id="namedview826"
     pagecolor="#ffffff"
     bordercolor="#666666"
     borderopacity="1.0"
     inkscape:pageshadow="2"
     inkscape:pageopacity="0.0"
     inkscape:pagecheckerboard="0"
     showgrid="false"
     inkscape:zoom="6.528503"
     inkscape:cx="86.773338"
     inkscape:cy="19.376571"
     inkscape:window-width="1920"
     inkscape:window-height="1001"
     inkscape:window-x="-7"
     inkscape:window-y="-7"
     inkscape:window-maximized="1"
     inkscape:current-layer="g830" /><g
     id="g830"
     inkscape:groupmode="layer"
     inkscape:label="ink_ext_XXXXXX"
     transform="matrix(1.3333333,0,0,-1.3333333,0,38.853333)"><g
       id="g832"
       transform="scale(0.1)"><path
         d="m 638.176,263.547 h 128.051 v -14.57 h -111.93 v -72.25 h 87.125 V 162.156 H 654.297 V 73.4766 H 769.945 V 58.9063 H 638.176 V 263.547"
         style="fill:#293982;fill-opacity:1;fill-rule:nonzero;stroke:none"
         id="path834" /><path
         d="m 920.602,133.633 c 0,44.648 -29.454,63.555 -58.907,63.555 -34.726,0 -59.843,-27.286 -59.843,-63.243 0,-35.9762 25.117,-63.5622 59.843,-63.5622 29.453,0 58.907,18.9141 58.907,63.2502 z m 15.507,157.812 V 58.9063 H 921.227 V 89.2969 C 910.063,68.5156 886.188,55.8008 860.141,55.8008 c -42.481,0 -74.414,34.4258 -74.414,77.8322 0,43.711 31.621,78.137 74.414,78.137 25.429,0 48.984,-12.407 60.461,-32.25 v 111.925 h 15.507"
         style="fill:#293982;fill-opacity:1;fill-rule:nonzero;stroke:none"
         id="path836" /><path
         d="m 1108.15,135.801 c 0,42.793 -29.77,61.082 -58.6,61.082 -35.04,0 -60.152,-26.668 -60.152,-61.395 0,-34.726 25.112,-61.3864 60.152,-61.3864 29.15,0 58.6,18.9062 58.6,61.6994 z m 15.5,72.863 V 72.2344 C 1123.65,26.6602 1093.88,0 1052.03,0 1022.57,0 997.77,13.0195 983.188,29.1406 l 9.621,10.5469 c 14.261,-14.2656 34.411,-25.1172 58.901,-25.1172 33.18,0 56.44,19.8438 56.44,57.0508 v 19.8437 c -11.48,-19.5312 -35.35,-31.9335 -60.77,-31.9335 -42.17,0 -74.114,33.4765 -74.114,76.2697 0,42.48 31.944,75.969 74.114,75.969 26.04,0 50.22,-12.719 61.38,-32.875 v 29.769 h 14.89"
         style="fill:#293982;fill-opacity:1;fill-rule:nonzero;stroke:none"
         id="path838" /><path
         d="m 1175.71,144.172 h 109.75 c 1.24,33.484 -23.25,53.328 -51.47,53.328 -30.38,0 -53.95,-22.637 -58.28,-53.328 z m 124.64,-13.957 h -125.27 c 1.86,-35.0275 27.6,-59.8322 61.7,-59.8322 20.78,0 37.52,8.9922 49.92,23.5625 l 9.93,-10.2344 c -14.57,-17.0507 -35.36,-27.9101 -60.16,-27.9101 -43.4,0 -77.51,34.1094 -77.51,77.8322 0,43.41 33.17,78.137 75.65,78.137 36.59,0 66.98,-25.735 66.98,-66.672 0,-6.504 -0.63,-12.403 -1.24,-14.883"
         style="fill:#293982;fill-opacity:1;fill-rule:nonzero;stroke:none"
         id="path840" /><path
         d="m 0,161.223 c 0,59.84 47.7539,105.73 107.594,105.73 38.445,0 70.386,-18.601 87.75,-47.129 l -24.809,-18.289 c -14.265,22.008 -35.347,35.348 -62.637,35.348 -42.1675,0 -73.7886,-31.942 -73.7886,-75.66 0,-43.711 31.6211,-75.6488 73.7886,-75.6488 27.29,0 48.372,13.3321 62.637,35.3438 l 24.809,-18.289 C 178.285,74.1016 146.039,55.4961 107.594,55.4961 47.7539,55.4961 0,101.074 0,161.223"
         style="fill:#293982;fill-opacity:1;fill-rule:nonzero;stroke:none"
         id="path842" /><path
         d="m 347.539,134.871 c 0,28.527 -20.469,49.926 -47.129,49.926 -27.285,0 -47.441,-21.399 -47.441,-49.926 0,-28.223 20.156,-49.2968 47.129,-49.2968 26.972,0 47.441,21.3908 47.441,49.2968 z m -127.742,0.317 c 0,44.648 35.34,79.371 80.301,79.371 45.269,0 80.925,-35.039 80.925,-79.371 0,-44.3482 -35.656,-79.6919 -80.925,-79.6919 -44.961,0 -80.301,35.3437 -80.301,79.6919"
         style="fill:#293982;fill-opacity:1;fill-rule:nonzero;stroke:none"
         id="path844" /><path
         d="M 505.945,58.9063 467.809,114.719 429.98,58.9063 h -37.207 l 56.43,79.0627 -52.394,73.176 h 37.207 l 34.097,-50.227 33.801,50.227 h 37.207 L 486.41,137.664 543.152,58.9063 h -37.207"
         style="fill:#293982;fill-opacity:1;fill-rule:nonzero;stroke:none"
         id="path846" /></g></g></svg>
