<?xml version="1.0" encoding="UTF-8" standalone="no"?>
<!-- Generator: Adobe Illustrator 16.0.0, SVG Export Plug-In . SVG Version: 6.00 Build 0)  -->

<svg
   version="1.1"
   id="Layer_1"
   x="0px"
   y="0px"
   width="500"
   height="508.23209"
   viewBox="0 0 500 508.23209"
   enable-background="new 0 0 50 47"
   xml:space="preserve"
   sodipodi:docname="Macaw-logo.svg"
   inkscape:version="1.1.1 (3bf5ae0d25, 2021-09-20)"
   xmlns:inkscape="http://www.inkscape.org/namespaces/inkscape"
   xmlns:sodipodi="http://sodipodi.sourceforge.net/DTD/sodipodi-0.dtd"
   xmlns:xlink="http://www.w3.org/1999/xlink"
   xmlns="http://www.w3.org/2000/svg"
   xmlns:svg="http://www.w3.org/2000/svg"><defs
   id="defs75" /><sodipodi:namedview
   id="namedview73"
   pagecolor="#ffffff"
   bordercolor="#666666"
   borderopacity="1.0"
   inkscape:pageshadow="2"
   inkscape:pageopacity="0.0"
   inkscape:pagecheckerboard="0"
   showgrid="false"
   fit-margin-top="0"
   fit-margin-left="0"
   fit-margin-right="0"
   fit-margin-bottom="0"
   inkscape:zoom="1"
   inkscape:cx="183.5"
   inkscape:cy="183"
   inkscape:window-width="1920"
   inkscape:window-height="1010"
   inkscape:window-x="-6"
   inkscape:window-y="-6"
   inkscape:window-maximized="1"
   inkscape:current-layer="Layer_1" />
<symbol
   id="flash0.ai_x2F_Isolation_Mode_x2F__x3C_Clip_Group_x3E_"
   transform="translate(-2.3200012,-0.62094466)">
</symbol>
<symbol
   id="flash0.ai_x2F_Isolation_Mode_x2F__x3C_Clip_Group_x3E__x5F_0"
   transform="translate(-2.3200012,-0.62094466)">
</symbol>
<symbol
   id="flash0.ai_x2F_Isolation_Mode_x2F__x3C_Clip_Group_x3E__x5F_1"
   transform="translate(-2.3200012,-0.62094466)">
</symbol>
<symbol
   id="flash0.ai_x2F_Isolation_Mode_x2F__x3C_Clip_Group_x3E__x5F_2"
   transform="translate(-2.3200012,-0.62094466)">
</symbol>
<g
   id="g70"
   transform="matrix(11.197485,0,0,11.197485,-25.978165,-6.9530164)">
	<path
   fill="#ed5833"
   d="M 3.575,34.352 C 6.135,21.861 14.908,2.489 19.883,0.996 23.641,-0.131 39.707,5.202 39.707,5.202 L 24.602,30.601 c 0,0 -0.015,2.589 0.847,4.378"
   id="path6" />
	<path
   fill="#a83924"
   d="m 3.067,34.244 c 0.262,-1.187 0.565,-2.381 0.894,-3.551 0.33,-1.176 0.688,-2.34 1.067,-3.5 0.761,-2.315 1.597,-4.602 2.529,-6.849 0.464,-1.125 0.945,-2.242 1.446,-3.349 0.493,-1.112 1.009,-2.211 1.528,-3.311 0.521,-1.098 1.067,-2.184 1.636,-3.259 0.566,-1.076 1.157,-2.141 1.786,-3.183 0.632,-1.041 1.295,-2.065 2.029,-3.043 0.738,-0.972 1.53,-1.922 2.519,-2.69 C 18.751,1.321 19.014,1.146 19.3,1 19.445,0.932 19.592,0.865 19.748,0.814 L 19.806,0.793 C 19.84,0.781 19.848,0.781 19.869,0.775 l 0.11,-0.029 c 0.074,-0.019 0.161,-0.033 0.241,-0.05 0.633,-0.101 1.251,-0.082 1.866,-0.047 1.227,0.083 2.431,0.285 3.625,0.521 0.598,0.118 1.192,0.247 1.785,0.382 0.296,0.07 0.595,0.131 0.885,0.222 0.291,0.091 0.573,0.217 0.862,0.308 0.29,0.095 0.589,0.148 0.883,0.222 l 0.886,0.211 1.77,0.437 c 1.177,0.296 2.354,0.597 3.528,0.909 1.176,0.312 2.345,0.635 3.515,0.982 l 0.438,0.131 -0.232,0.42 -0.896,1.616 c -0.297,0.54 -0.604,1.074 -0.908,1.609 -0.605,1.072 -1.231,2.132 -1.851,3.197 l -1.885,3.177 -0.944,1.587 -0.952,1.583 c -0.634,1.056 -1.269,2.11 -1.912,3.16 -0.641,1.052 -1.28,2.104 -1.93,3.151 -0.645,1.048 -1.298,2.094 -1.956,3.135 l -0.983,1.563 c -0.326,0.521 -0.665,1.035 -0.997,1.555 l 0.036,-0.126 c 0.012,0.178 0.029,0.363 0.051,0.545 0.021,0.185 0.046,0.364 0.073,0.546 0.056,0.362 0.126,0.724 0.209,1.077 0.044,0.176 0.088,0.352 0.14,0.523 0.047,0.175 0.108,0.342 0.166,0.513 l 0.093,0.247 c 0.03,0.082 0.068,0.161 0.104,0.24 0.065,0.163 0.151,0.311 0.227,0.463 l -0.932,0.45 C 24.912,35.012 24.834,34.822 24.78,34.63 24.752,34.534 24.719,34.439 24.696,34.342 L 24.624,34.054 C 24.584,33.862 24.541,33.67 24.513,33.478 24.478,33.286 24.454,33.091 24.43,32.9 24.388,32.517 24.359,32.132 24.346,31.751 24.34,31.56 24.336,31.366 24.337,31.177 c 0.001,-0.191 0.006,-0.38 0.015,-0.577 v 0 -0.061 l 0.037,-0.066 c 0.297,-0.54 0.588,-1.083 0.892,-1.618 l 0.904,-1.611 c 0.602,-1.075 1.205,-2.148 1.819,-3.215 0.609,-1.072 1.229,-2.136 1.847,-3.2 0.615,-1.067 1.238,-2.128 1.864,-3.188 l 0.937,-1.593 0.943,-1.587 1.893,-3.173 c 0.64,-1.051 1.272,-2.108 1.926,-3.152 0.324,-0.523 0.647,-1.047 0.979,-1.565 l 0.992,-1.56 0.204,0.551 C 38.454,5.153 37.309,4.754 36.162,4.363 35.015,3.972 33.862,3.594 32.704,3.239 32.125,3.059 31.545,2.889 30.961,2.723 L 30.085,2.476 C 29.792,2.398 29.505,2.305 29.204,2.255 28.905,2.2 28.598,2.185 28.298,2.136 27.999,2.089 27.706,2.013 27.411,1.95 26.818,1.82 26.227,1.698 25.633,1.587 24.448,1.367 23.255,1.172 22.061,1.087 21.466,1.051 20.863,1.036 20.296,1.126 20.229,1.14 20.165,1.149 20.091,1.167 L 19.98,1.194 c -0.015,0.004 -0.045,0.01 -0.046,0.014 l -0.049,0.017 c -0.133,0.042 -0.263,0.1 -0.392,0.161 -0.255,0.129 -0.499,0.29 -0.734,0.464 -0.934,0.718 -1.719,1.646 -2.447,2.6 -0.727,0.959 -1.387,1.971 -2.017,3.002 -0.626,1.032 -1.218,2.087 -1.783,3.156 -0.559,1.072 -1.096,2.158 -1.608,3.254 -1.03,2.19 -1.932,4.44 -2.769,6.709 -0.419,1.135 -0.816,2.277 -1.206,3.42 -0.388,1.146 -0.753,2.298 -1.099,3.454 -0.345,1.157 -0.668,2.32 -0.962,3.49 -0.295,1.17 -0.559,2.336 -0.787,3.525 z"
   id="path8" />
	<path
   fill="#fffffc"
   d="m 36.2,23.151 c -1.297,2.632 -9.6,-5.398 -11.643,-3.843 -3.64,2.773 -5.064,8.11 -5.064,8.11 -5.469,-3.082 -8.866,-5.876 -8.06,-8.938 0.748,-2.838 5.905,-14.227 10.359,-15.086 1.733,-0.335 4.817,0.392 13.141,2.729 6.108,1.712 4.87,9.707 1.267,17.028"
   id="path10" />
	<path
   fill="#54382c"
   d="m 26.67,8.504 c 0,1.598 -1.296,2.893 -2.893,2.893 -1.599,0 -2.894,-1.295 -2.894,-2.893 0,-1.599 1.295,-2.894 2.894,-2.894 1.597,10e-4 2.893,1.296 2.893,2.894"
   id="path12" />
	<path
   fill="#fffcf7"
   d="m 24.803,6.733 c 0,0.348 -0.459,0.631 -1.026,0.631 -0.568,0 -1.028,-0.283 -1.028,-0.631 0,-0.348 0.46,-0.63 1.028,-0.63 0.567,0 1.026,0.282 1.026,0.63"
   id="path14" />
	<path
   fill="#f89d3d"
   d="m 25.838,17.747 c 0,0 -1.112,-0.689 -2.947,-3.544 -1.149,0.279 -2.156,1.158 -3.359,3.16 -3.975,6.607 -1.772,11.78 3.304,10.63 5.075,-1.149 10.725,-1.053 11.971,-5.458 1.245,-4.406 -8.969,-4.788 -8.969,-4.788"
   id="path16" />
	<path
   fill="#b26c29"
   d="m 25.78,17.833 c -0.166,-0.123 -0.305,-0.258 -0.446,-0.394 -0.137,-0.139 -0.271,-0.28 -0.399,-0.425 -0.129,-0.145 -0.252,-0.296 -0.376,-0.445 -0.122,-0.15 -0.243,-0.301 -0.36,-0.456 -0.235,-0.307 -0.458,-0.623 -0.675,-0.941 -0.22,-0.318 -0.432,-0.641 -0.64,-0.966 l 0.009,0.005 c -0.226,0.056 -0.447,0.134 -0.658,0.232 -0.212,0.101 -0.41,0.226 -0.6,0.361 -0.377,0.278 -0.704,0.617 -1.001,0.978 -0.591,0.726 -1.063,1.54 -1.486,2.369 -0.426,0.83 -0.765,1.704 -1.012,2.595 -0.238,0.892 -0.379,1.809 -0.357,2.712 0.022,0.899 0.207,1.792 0.63,2.524 0.213,0.363 0.474,0.688 0.792,0.943 0.316,0.254 0.682,0.438 1.072,0.554 0.39,0.119 0.807,0.164 1.228,0.162 0.425,-0.008 0.843,-0.069 1.28,-0.167 0.926,-0.206 1.857,-0.372 2.781,-0.53 0.923,-0.158 1.84,-0.313 2.744,-0.495 0.902,-0.181 1.793,-0.396 2.63,-0.709 0.837,-0.312 1.624,-0.729 2.246,-1.312 0.625,-0.58 1.062,-1.34 1.274,-2.185 0.037,-0.176 0.061,-0.381 0.05,-0.569 -0.01,-0.192 -0.05,-0.379 -0.121,-0.559 -0.143,-0.36 -0.41,-0.685 -0.738,-0.96 -0.325,-0.276 -0.71,-0.506 -1.111,-0.705 -0.402,-0.201 -0.826,-0.371 -1.259,-0.52 -0.868,-0.296 -1.77,-0.511 -2.682,-0.689 -0.911,-0.17 -1.836,-0.309 -2.762,-0.393 L 25.8,17.847 Z m 0.091,-0.188 c 0.933,0.01 1.862,0.072 2.788,0.188 0.936,0.115 1.869,0.285 2.79,0.546 0.914,0.266 1.836,0.606 2.644,1.224 0.398,0.309 0.771,0.707 0.997,1.211 0.111,0.251 0.184,0.523 0.21,0.797 0.025,0.279 0.008,0.544 -0.05,0.826 -0.107,0.489 -0.282,0.969 -0.522,1.419 -0.242,0.447 -0.554,0.861 -0.916,1.222 -0.723,0.727 -1.623,1.211 -2.528,1.566 -0.91,0.355 -1.843,0.595 -2.77,0.797 -0.928,0.203 -1.857,0.354 -2.777,0.516 -0.92,0.16 -1.832,0.323 -2.731,0.527 -0.956,0.225 -2.031,0.275 -3.037,-0.065 -0.5,-0.172 -0.97,-0.448 -1.363,-0.803 -0.393,-0.355 -0.71,-0.787 -0.928,-1.254 -0.442,-0.935 -0.548,-1.954 -0.478,-2.919 0.071,-0.969 0.312,-1.903 0.639,-2.792 0.32,-0.893 0.748,-1.736 1.208,-2.554 0.232,-0.407 0.483,-0.803 0.744,-1.193 0.257,-0.391 0.535,-0.77 0.835,-1.129 0.3,-0.358 0.634,-0.689 1.005,-0.975 0.19,-0.137 0.387,-0.265 0.598,-0.367 0.211,-0.102 0.432,-0.184 0.66,-0.242 l 0.006,-0.001 0.003,0.005 c 0.212,0.323 0.429,0.642 0.652,0.956 0.23,0.311 0.463,0.618 0.709,0.914 0.243,0.298 0.498,0.588 0.77,0.859 0.135,0.136 0.275,0.267 0.418,0.394 0.134,0.12 0.28,0.235 0.424,0.327"
   id="path18" />
	<path
   fill="#fcb72b"
   d="m 35.596,3.711 c 0,0 1.72,0.525 6.844,2.001 6.558,1.89 4.382,11.837 0.085,18.438 -4.477,6.881 -11.815,11.956 -11.815,11.956 0,0 4.536,-7.444 1.236,-10.18 -4.803,-3.979 -9.197,1.145 -9.056,-11.724 0,0 1.007,0.746 4.609,0.97 3.41,0.213 8.097,-11.461 8.097,-11.461"
   id="path20" />
	<path
   fill="#b9812c"
   d="m 35.596,3.711 c 0.921,0.207 1.838,0.425 2.752,0.649 0.913,0.229 1.829,0.45 2.739,0.687 l 1.366,0.356 c 0.122,0.031 0.229,0.067 0.344,0.101 0.113,0.037 0.237,0.082 0.354,0.125 0.229,0.092 0.456,0.191 0.676,0.311 0.882,0.462 1.637,1.19 2.139,2.054 0.509,0.863 0.786,1.833 0.912,2.799 0.131,0.971 0.115,1.945 0.021,2.904 -0.196,1.92 -0.708,3.782 -1.384,5.567 -0.686,1.784 -1.546,3.5 -2.575,5.115 -0.513,0.794 -1.074,1.585 -1.653,2.337 -0.58,0.754 -1.19,1.487 -1.82,2.198 -1.263,1.424 -2.607,2.77 -4.023,4.035 -0.705,0.635 -1.427,1.25 -2.165,1.849 -0.74,0.598 -1.482,1.176 -2.272,1.736 l -2.022,1.431 1.284,-2.127 v 0 c 0.289,-0.471 0.567,-0.981 0.824,-1.488 0.256,-0.51 0.495,-1.029 0.708,-1.557 0.426,-1.054 0.771,-2.145 0.901,-3.246 0.061,-0.549 0.065,-1.101 -0.032,-1.622 -0.099,-0.522 -0.302,-1.012 -0.634,-1.402 -0.082,-0.1 -0.173,-0.192 -0.27,-0.277 -0.085,-0.078 -0.218,-0.188 -0.319,-0.269 -0.212,-0.171 -0.445,-0.334 -0.681,-0.481 -0.472,-0.298 -0.979,-0.542 -1.511,-0.734 -0.53,-0.194 -1.085,-0.341 -1.65,-0.479 -0.563,-0.142 -1.144,-0.275 -1.708,-0.5 -0.563,-0.221 -1.104,-0.564 -1.507,-1.031 -0.407,-0.464 -0.68,-1.014 -0.877,-1.575 -0.196,-0.563 -0.319,-1.143 -0.411,-1.723 -0.091,-0.58 -0.145,-1.165 -0.181,-1.748 -0.071,-1.168 -0.063,-2.336 -0.029,-3.501 0.342,0.21 0.729,0.333 1.112,0.446 0.386,0.108 0.778,0.195 1.173,0.263 0.394,0.068 0.791,0.122 1.189,0.165 0.397,0.041 0.798,0.076 1.197,0.097 0.406,0.01 0.793,-0.147 1.134,-0.352 0.343,-0.207 0.652,-0.467 0.938,-0.746 0.576,-0.56 1.069,-1.197 1.529,-1.852 0.459,-0.656 0.882,-1.338 1.284,-2.032 0.4,-0.694 0.78,-1.4 1.144,-2.113 0.723,-1.431 1.394,-2.888 2.004,-4.37 m 0,0 c -0.609,1.482 -1.28,2.939 -2.005,4.369 -0.363,0.713 -0.743,1.419 -1.144,2.113 -0.402,0.694 -0.825,1.376 -1.284,2.032 -0.46,0.655 -0.953,1.292 -1.529,1.852 -0.285,0.279 -0.595,0.54 -0.938,0.746 -0.341,0.205 -0.728,0.361 -1.134,0.352 -0.399,-0.021 -0.8,-0.056 -1.197,-0.097 -0.398,-0.043 -0.796,-0.097 -1.189,-0.165 -0.396,-0.068 -0.788,-0.155 -1.173,-0.263 -0.382,-0.113 -0.77,-0.235 -1.112,-0.446 0.015,1.166 0.056,2.332 0.175,3.489 0.062,0.578 0.138,1.154 0.251,1.721 0.114,0.567 0.26,1.128 0.47,1.658 0.212,0.528 0.49,1.029 0.873,1.429 0.378,0.403 0.863,0.684 1.392,0.867 0.528,0.187 1.094,0.293 1.665,0.411 0.573,0.115 1.155,0.242 1.728,0.424 0.573,0.181 1.134,0.421 1.661,0.723 0.265,0.153 0.516,0.313 0.768,0.498 0.066,0.046 0.121,0.091 0.18,0.135 l 0.087,0.066 0.021,0.018 0.027,0.021 0.047,0.042 c 0.124,0.103 0.242,0.218 0.35,0.34 0.44,0.486 0.712,1.104 0.848,1.724 0.136,0.62 0.144,1.249 0.094,1.859 -0.106,1.224 -0.443,2.385 -0.857,3.504 -0.208,0.559 -0.442,1.107 -0.693,1.648 -0.255,0.539 -0.518,1.063 -0.823,1.595 l -0.001,0.003 -0.736,-0.697 c 0.745,-0.526 1.488,-1.104 2.21,-1.688 0.725,-0.585 1.436,-1.19 2.129,-1.813 1.386,-1.247 2.722,-2.548 3.969,-3.932 0.623,-0.688 1.225,-1.397 1.798,-2.13 0.575,-0.733 1.112,-1.471 1.628,-2.252 1.014,-1.544 1.872,-3.197 2.559,-4.916 0.681,-1.719 1.197,-3.512 1.409,-5.336 0.104,-0.911 0.129,-1.83 0.021,-2.728 C 46.035,9.991 45.797,9.113 45.365,8.342 44.937,7.57 44.302,6.926 43.526,6.496 43.335,6.386 43.131,6.293 42.926,6.204 42.822,6.165 42.725,6.126 42.616,6.088 L 42.281,5.98 40.939,5.545 C 40.044,5.253 39.155,4.945 38.261,4.647 37.371,4.343 36.482,4.032 35.596,3.711"
   id="path22" />
	<g
   opacity="0.39"
   id="g34">
		<g
   id="g32">
			<defs
   id="defs25">
				<rect
   id="SVGID_1_"
   x="33.682999"
   y="4.263"
   width="12.25"
   height="18.636" />
			</defs>
			<clipPath
   id="SVGID_2_">
				<use
   xlink:href="#SVGID_1_"
   overflow="visible"
   id="use27"
   x="0"
   y="0"
   width="100%"
   height="100%" />
			</clipPath>
			<path
   clip-path="url(#SVGID_2_)"
   fill="#ffffff"
   d="m 33.683,8.673 1.902,-4.411 c 0,0 4.135,1.333 6.344,1.927 6.608,1.772 3.695,10.405 0.779,16.709 0,0.001 5.469,-10.815 -9.025,-14.225"
   id="path30" />
		</g>
	</g>
	<g
   opacity="0.08"
   id="g46">
		<g
   id="g44">
			<defs
   id="defs37">
				<rect
   id="SVGID_3_"
   x="22.184999"
   y="14.204"
   width="8.8310003"
   height="12.408" />
			</defs>
			<clipPath
   id="SVGID_4_">
				<use
   xlink:href="#SVGID_3_"
   overflow="visible"
   id="use39"
   x="0"
   y="0"
   width="100%"
   height="100%" />
			</clipPath>
			<path
   clip-path="url(#SVGID_4_)"
   d="m 22.888,14.204 c 0,0 -0.458,7.248 1.819,8.844 2.19,1.534 3.985,1.022 6.309,2.649 0,0 -2.14,0.761 -3.55,0.899 -0.24,0.026 -7.532,0.822 -4.578,-12.392"
   id="path42" />
		</g>
	</g>
	<path
   fill="#ed5833"
   d="m 10.556,44.935 -1.122,-3.843 -1.02,3.573 c -0.11,0.373 -0.19,0.629 -0.243,0.766 -0.052,0.137 -0.151,0.268 -0.296,0.39 -0.145,0.125 -0.343,0.187 -0.596,0.187 -0.255,0 -0.457,-0.062 -0.601,-0.187 C 6.532,45.699 6.431,45.563 6.371,45.418 6.313,45.273 6.231,45.023 6.127,44.666 L 5.106,41.093 3.972,44.936 c -0.076,0.277 -0.137,0.48 -0.184,0.603 -0.046,0.125 -0.124,0.233 -0.233,0.327 -0.11,0.097 -0.267,0.143 -0.473,0.143 -0.206,0 -0.384,-0.072 -0.535,-0.213 C 2.395,45.651 2.32,45.484 2.32,45.29 c 0,-0.175 0.065,-0.444 0.195,-0.801 L 3.92,40.368 c 0.122,-0.347 0.216,-0.599 0.284,-0.755 0.067,-0.154 0.173,-0.293 0.318,-0.416 0.145,-0.12 0.343,-0.183 0.595,-0.183 0.261,0 0.466,0.065 0.614,0.195 0.15,0.132 0.26,0.289 0.332,0.479 0.071,0.188 0.149,0.434 0.233,0.737 l 0.982,3.352 0.952,-3.352 c 0.126,-0.467 0.262,-0.818 0.409,-1.055 0.147,-0.238 0.405,-0.357 0.775,-0.357 0.189,0 0.349,0.036 0.483,0.11 0.131,0.074 0.242,0.18 0.33,0.315 0.088,0.137 0.166,0.297 0.233,0.486 0.067,0.186 0.12,0.334 0.158,0.441 l 1.393,4.121 c 0.138,0.387 0.208,0.653 0.208,0.801 0,0.186 -0.073,0.351 -0.221,0.498 -0.146,0.146 -0.328,0.221 -0.542,0.221 -0.286,0 -0.479,-0.082 -0.58,-0.242 -0.1,-0.16 -0.206,-0.438 -0.32,-0.829"
   id="path48" />
	<path
   fill="#ed5833"
   d="m 17.317,45.036 c -0.417,0.324 -0.818,0.567 -1.207,0.729 -0.389,0.162 -0.824,0.242 -1.307,0.242 -0.441,0 -0.829,-0.088 -1.163,-0.261 -0.334,-0.175 -0.591,-0.412 -0.772,-0.71 -0.181,-0.299 -0.271,-0.619 -0.271,-0.97 0,-0.472 0.149,-0.871 0.447,-1.203 0.298,-0.332 0.708,-0.555 1.228,-0.668 0.11,-0.025 0.381,-0.083 0.813,-0.172 0.433,-0.086 0.803,-0.168 1.112,-0.24 0.309,-0.075 0.644,-0.164 1.005,-0.27 -0.021,-0.452 -0.113,-0.787 -0.274,-0.998 -0.162,-0.211 -0.497,-0.317 -1.005,-0.317 -0.437,0 -0.766,0.061 -0.986,0.183 -0.22,0.121 -0.409,0.303 -0.566,0.548 -0.157,0.244 -0.27,0.405 -0.334,0.48 -0.065,0.079 -0.205,0.118 -0.419,0.118 -0.194,0 -0.361,-0.063 -0.5,-0.185 -0.141,-0.125 -0.212,-0.283 -0.212,-0.478 0,-0.302 0.107,-0.597 0.322,-0.883 0.214,-0.284 0.547,-0.519 1.002,-0.704 C 14.683,39.091 15.248,39 15.924,39 c 0.756,0 1.352,0.09 1.784,0.268 0.432,0.179 0.738,0.462 0.917,0.848 0.179,0.386 0.268,0.899 0.268,1.536 0,0.404 -0.001,0.747 -0.003,1.028 -0.002,0.279 -0.006,0.595 -0.009,0.94 0,0.32 0.054,0.658 0.161,1.008 0.107,0.352 0.16,0.579 0.16,0.68 0,0.176 -0.083,0.335 -0.249,0.481 -0.166,0.143 -0.354,0.217 -0.563,0.217 -0.177,0 -0.351,-0.084 -0.523,-0.249 -0.174,-0.164 -0.358,-0.406 -0.55,-0.721 m -0.113,-2.489 c -0.252,0.094 -0.619,0.192 -1.1,0.293 -0.481,0.104 -0.814,0.181 -0.998,0.229 -0.186,0.046 -0.362,0.143 -0.529,0.283 -0.167,0.14 -0.252,0.338 -0.252,0.589 0,0.261 0.099,0.482 0.295,0.665 0.198,0.182 0.457,0.274 0.775,0.274 0.34,0 0.654,-0.074 0.942,-0.224 0.288,-0.149 0.499,-0.341 0.632,-0.577 0.156,-0.26 0.234,-0.688 0.234,-1.285 v -0.247 z"
   id="path50" />
	<path
   fill="#ed5833"
   d="m 26.291,43.878 c 0,0.213 -0.064,0.442 -0.193,0.686 -0.129,0.244 -0.324,0.476 -0.587,0.697 -0.262,0.22 -0.593,0.397 -0.992,0.533 -0.398,0.133 -0.848,0.201 -1.348,0.201 -1.063,0 -1.893,-0.311 -2.489,-0.93 -0.595,-0.621 -0.894,-1.45 -0.894,-2.491 0,-0.707 0.136,-1.329 0.409,-1.872 0.273,-0.542 0.667,-0.962 1.185,-1.256 0.516,-0.297 1.133,-0.445 1.852,-0.445 0.446,0 0.854,0.064 1.226,0.194 0.372,0.131 0.687,0.298 0.945,0.505 0.259,0.207 0.457,0.425 0.594,0.659 0.135,0.233 0.203,0.449 0.203,0.65 0,0.206 -0.076,0.382 -0.23,0.524 -0.152,0.142 -0.339,0.215 -0.557,0.215 -0.143,0 -0.262,-0.037 -0.355,-0.112 -0.094,-0.073 -0.201,-0.191 -0.319,-0.355 -0.21,-0.319 -0.43,-0.56 -0.658,-0.718 -0.229,-0.16 -0.52,-0.239 -0.873,-0.239 -0.508,0 -0.918,0.199 -1.228,0.595 -0.311,0.396 -0.466,0.94 -0.466,1.628 0,0.325 0.04,0.622 0.12,0.892 0.08,0.272 0.195,0.503 0.347,0.695 0.151,0.19 0.334,0.336 0.547,0.434 0.214,0.1 0.45,0.148 0.706,0.148 0.345,0 0.64,-0.079 0.886,-0.239 0.246,-0.16 0.462,-0.403 0.651,-0.731 0.104,-0.192 0.22,-0.344 0.34,-0.454 0.121,-0.109 0.271,-0.162 0.447,-0.162 0.21,0 0.386,0.078 0.522,0.239 0.139,0.157 0.209,0.327 0.209,0.509"
   id="path52" />
	<g
   opacity="0.08"
   id="g64">
		<g
   id="g62">
			<defs
   id="defs55">
				<rect
   id="SVGID_5_"
   x="19.788"
   y="39"
   width="6.5029998"
   height="6.9949999" />
			</defs>
			<clipPath
   id="SVGID_6_">
				<use
   xlink:href="#SVGID_5_"
   overflow="visible"
   id="use57"
   x="0"
   y="0"
   width="100%"
   height="100%" />
			</clipPath>
			<path
   clip-path="url(#SVGID_6_)"
   d="m 26.291,43.878 c 0,0.213 -0.064,0.442 -0.193,0.686 -0.129,0.244 -0.324,0.476 -0.587,0.697 -0.262,0.22 -0.593,0.397 -0.992,0.533 -0.398,0.133 -0.848,0.201 -1.348,0.201 -1.063,0 -1.893,-0.311 -2.489,-0.93 -0.595,-0.621 -0.894,-1.45 -0.894,-2.491 0,-0.707 0.136,-1.329 0.409,-1.872 0.273,-0.542 0.667,-0.962 1.185,-1.256 0.516,-0.297 1.133,-0.445 1.852,-0.445 0.446,0 0.854,0.064 1.226,0.194 0.372,0.131 0.687,0.298 0.945,0.505 0.259,0.207 0.457,0.425 0.594,0.659 0.135,0.233 0.203,0.449 0.203,0.65 0,0.206 -0.076,0.382 -0.23,0.524 -0.152,0.142 -0.339,0.215 -0.557,0.215 -0.143,0 -0.262,-0.037 -0.355,-0.112 -0.094,-0.073 -0.201,-0.191 -0.319,-0.355 -0.21,-0.319 -0.43,-0.56 -0.658,-0.718 -0.229,-0.16 -0.52,-0.239 -0.873,-0.239 -0.508,0 -0.918,0.199 -1.228,0.595 -0.311,0.396 -0.466,0.94 -0.466,1.628 0,0.325 0.04,0.622 0.12,0.892 0.08,0.272 0.195,0.503 0.347,0.695 0.151,0.19 0.334,0.336 0.547,0.434 0.214,0.1 0.45,0.148 0.706,0.148 0.345,0 0.64,-0.079 0.886,-0.239 0.246,-0.16 0.462,-0.403 0.651,-0.731 0.104,-0.192 0.22,-0.344 0.34,-0.454 0.121,-0.109 0.271,-0.162 0.447,-0.162 0.21,0 0.386,0.078 0.522,0.239 0.139,0.157 0.209,0.327 0.209,0.509"
   id="path60" />
		</g>
	</g>
	<path
   fill="#ed5833"
   d="m 31.621,45.036 c -0.417,0.324 -0.818,0.567 -1.208,0.729 -0.388,0.162 -0.824,0.242 -1.306,0.242 -0.442,0 -0.829,-0.088 -1.165,-0.261 -0.332,-0.175 -0.589,-0.412 -0.771,-0.71 -0.179,-0.299 -0.27,-0.619 -0.27,-0.97 0,-0.472 0.149,-0.871 0.447,-1.203 0.299,-0.332 0.708,-0.555 1.229,-0.668 0.108,-0.025 0.38,-0.083 0.812,-0.172 0.435,-0.086 0.804,-0.168 1.113,-0.24 0.309,-0.075 0.644,-0.164 1.006,-0.27 -0.021,-0.452 -0.114,-0.787 -0.275,-0.998 -0.161,-0.211 -0.496,-0.317 -1.004,-0.317 -0.438,0 -0.766,0.061 -0.986,0.183 -0.221,0.121 -0.409,0.303 -0.566,0.548 -0.158,0.244 -0.271,0.405 -0.335,0.48 -0.064,0.079 -0.204,0.118 -0.418,0.118 -0.194,0 -0.362,-0.063 -0.503,-0.185 -0.14,-0.125 -0.211,-0.283 -0.211,-0.478 0,-0.302 0.108,-0.597 0.323,-0.883 0.214,-0.284 0.548,-0.519 1.001,-0.704 C 28.987,39.092 29.552,39 30.229,39 c 0.755,0 1.35,0.09 1.781,0.268 0.435,0.179 0.739,0.462 0.918,0.848 0.179,0.386 0.268,0.899 0.268,1.536 0,0.404 -10e-4,0.747 -0.003,1.028 -0.002,0.279 -0.005,0.595 -0.009,0.94 0,0.32 0.054,0.658 0.16,1.008 0.108,0.352 0.161,0.579 0.161,0.68 0,0.176 -0.083,0.335 -0.25,0.481 -0.165,0.143 -0.354,0.217 -0.563,0.217 -0.177,0 -0.35,-0.084 -0.523,-0.249 -0.173,-0.164 -0.356,-0.406 -0.548,-0.721 m -0.113,-2.489 c -0.253,0.094 -0.62,0.192 -1.101,0.293 -0.48,0.104 -0.813,0.181 -0.998,0.229 -0.186,0.046 -0.36,0.143 -0.529,0.283 -0.167,0.141 -0.253,0.338 -0.253,0.589 0,0.261 0.1,0.482 0.298,0.665 0.196,0.182 0.454,0.274 0.773,0.274 0.34,0 0.654,-0.074 0.941,-0.224 0.289,-0.149 0.501,-0.341 0.633,-0.577 0.156,-0.26 0.235,-0.688 0.235,-1.285 v -0.247 z"
   id="path66" />
	<path
   fill="#ed5833"
   d="m 35.175,40.085 1.122,3.843 1.02,-3.571 c 0.109,-0.376 0.189,-0.63 0.243,-0.767 0.052,-0.137 0.15,-0.266 0.296,-0.391 0.145,-0.124 0.343,-0.187 0.596,-0.187 0.255,0 0.456,0.063 0.602,0.187 0.145,0.125 0.246,0.258 0.305,0.403 0.06,0.144 0.141,0.396 0.245,0.754 l 1.021,3.571 1.134,-3.843 c 0.076,-0.278 0.137,-0.479 0.183,-0.602 0.047,-0.124 0.125,-0.235 0.233,-0.328 0.109,-0.094 0.268,-0.143 0.474,-0.143 0.205,0 0.384,0.072 0.535,0.215 0.151,0.143 0.226,0.311 0.226,0.504 0,0.177 -0.063,0.442 -0.194,0.8 l -1.405,4.121 c -0.122,0.349 -0.217,0.602 -0.283,0.756 -0.067,0.155 -0.173,0.295 -0.319,0.416 -0.144,0.123 -0.342,0.183 -0.594,0.183 -0.261,0 -0.467,-0.063 -0.614,-0.196 -0.15,-0.129 -0.259,-0.287 -0.332,-0.479 -0.07,-0.189 -0.147,-0.435 -0.233,-0.737 l -0.981,-3.35 -0.951,3.35 c -0.127,0.467 -0.263,0.82 -0.41,1.057 -0.146,0.235 -0.406,0.355 -0.775,0.355 -0.188,0 -0.349,-0.038 -0.482,-0.11 -0.131,-0.072 -0.242,-0.178 -0.329,-0.315 -0.09,-0.137 -0.168,-0.298 -0.233,-0.484 -0.068,-0.187 -0.121,-0.334 -0.158,-0.444 l -1.394,-4.121 c -0.138,-0.387 -0.208,-0.653 -0.208,-0.8 0,-0.185 0.074,-0.352 0.223,-0.497 0.146,-0.147 0.326,-0.222 0.541,-0.222 0.286,0 0.479,0.081 0.579,0.244 0.095,0.16 0.203,0.436 0.317,0.828"
   id="path68" />
</g>
</svg>
